<svg xmlns="http://www.w3.org/2000/svg" xmlns:xlink="http://www.w3.org/1999/xlink" version="1.1" width="256" height="256" viewBox="0 0 256 256" xml:space="preserve">

<defs>
</defs>
<g style="stroke: none; stroke-width: 0; stroke-dasharray: none; stroke-linecap: butt; stroke-linejoin: miter; stroke-miterlimit: 10; fill: none; fill-rule: nonzero; opacity: 1;" transform="translate(1.4065934065934016 1.4065934065934016) scale(2.81 2.81)" >
	<ellipse cx="44.998" cy="9.286" rx="34.498" ry="8.286" style="stroke: none; stroke-width: 1; stroke-dasharray: none; stroke-linecap: butt; stroke-linejoin: miter; stroke-miterlimit: 10; fill: rgb(162,217,240); fill-rule: nonzero; opacity: 1;" transform=" matrix(1 0 0 1 0 0) "/>
	<path d="M 79.498 9.286 c 0 4.576 -15.445 8.286 -34.498 8.286 s -34.498 -3.71 -34.498 -8.286 v 23.809 c 0 4.576 15.445 8.286 34.498 8.286 s 34.498 -3.71 34.498 -8.286 V 9.286 z" style="stroke: none; stroke-width: 1; stroke-dasharray: none; stroke-linecap: butt; stroke-linejoin: miter; stroke-miterlimit: 10; fill: rgb(50,167,228); fill-rule: nonzero; opacity: 1;" transform=" matrix(1 0 0 1 0 0) " stroke-linecap="round" />
	<path d="M 79.498 33.095 c 0 4.576 -15.445 8.286 -34.498 8.286 s -34.498 -3.71 -34.498 -8.286 v 23.809 c 0 4.576 15.445 8.286 34.498 8.286 s 34.498 -3.71 34.498 -8.286 V 33.095 z" style="stroke: none; stroke-width: 1; stroke-dasharray: none; stroke-linecap: butt; stroke-linejoin: miter; stroke-miterlimit: 10; fill: rgb(162,217,240); fill-rule: nonzero; opacity: 1;" transform=" matrix(1 0 0 1 0 0) " stroke-linecap="round" />
	<path d="M 79.498 56.905 c 0 4.576 -15.445 8.286 -34.498 8.286 s -34.498 -3.71 -34.498 -8.286 v 23.809 C 10.502 85.29 25.947 89 45 89 s 34.498 -3.71 34.498 -8.286 V 56.905 z" style="stroke: none; stroke-width: 1; stroke-dasharray: none; stroke-linecap: butt; stroke-linejoin: miter; stroke-miterlimit: 10; fill: rgb(50,167,228); fill-rule: nonzero; opacity: 1;" transform=" matrix(1 0 0 1 0 0) " stroke-linecap="round" />
	<path d="M 45 18.572 c -17.208 0 -35.498 -3.254 -35.498 -9.286 S 27.792 0 45 0 c 17.209 0 35.498 3.254 35.498 9.286 S 62.209 18.572 45 18.572 z M 45 2 C 24.246 2 11.502 6.244 11.502 9.286 S 24.246 16.572 45 16.572 c 20.754 0 33.498 -4.244 33.498 -7.286 S 65.754 2 45 2 z" style="stroke: none; stroke-width: 1; stroke-dasharray: none; stroke-linecap: butt; stroke-linejoin: miter; stroke-miterlimit: 10; fill: rgb(0,0,0); fill-rule: nonzero; opacity: 1;" transform=" matrix(1 0 0 1 0 0) " stroke-linecap="round" />
	<path d="M 45 42.381 c -17.208 0 -35.498 -3.254 -35.498 -9.286 V 9.286 c 0 -0.552 0.448 -1 1 -1 s 1 0.448 1 1 c 0 3.042 12.744 7.286 33.498 7.286 c 20.754 0 33.498 -4.244 33.498 -7.286 c 0 -0.552 0.447 -1 1 -1 s 1 0.448 1 1 v 23.809 C 80.498 39.127 62.209 42.381 45 42.381 z M 11.502 12.538 v 20.557 c 0 3.042 12.744 7.286 33.498 7.286 c 20.754 0 33.498 -4.244 33.498 -7.286 V 12.538 C 73.3 16.479 58.803 18.572 45 18.572 C 31.198 18.572 16.701 16.479 11.502 12.538 z" style="stroke: none; stroke-width: 1; stroke-dasharray: none; stroke-linecap: butt; stroke-linejoin: miter; stroke-miterlimit: 10; fill: rgb(0,0,0); fill-rule: nonzero; opacity: 1;" transform=" matrix(1 0 0 1 0 0) " stroke-linecap="round" />
	<path d="M 45.916 30.477 h -1.831 c -0.552 0 -1 -0.448 -1 -1 s 0.448 -1 1 -1 h 1.831 c 0.552 0 1 0.448 1 1 S 46.468 30.477 45.916 30.477 z" style="stroke: none; stroke-width: 1; stroke-dasharray: none; stroke-linecap: butt; stroke-linejoin: miter; stroke-miterlimit: 10; fill: rgb(0,0,0); fill-rule: nonzero; opacity: 1;" transform=" matrix(1 0 0 1 0 0) " stroke-linecap="round" />
	<path d="M 45 66.19 c -17.208 0 -35.498 -3.255 -35.498 -9.286 V 33.095 c 0 -0.552 0.448 -1 1 -1 s 1 0.448 1 1 c 0 3.042 12.744 7.286 33.498 7.286 c 20.754 0 33.498 -4.244 33.498 -7.286 c 0 -0.552 0.447 -1 1 -1 s 1 0.448 1 1 v 23.809 C 80.498 62.936 62.209 66.19 45 66.19 z M 11.502 36.347 v 20.557 c 0 3.042 12.744 7.286 33.498 7.286 c 20.754 0 33.498 -4.244 33.498 -7.286 V 36.347 C 73.3 40.288 58.803 42.381 45 42.381 C 31.198 42.381 16.701 40.288 11.502 36.347 z" style="stroke: none; stroke-width: 1; stroke-dasharray: none; stroke-linecap: butt; stroke-linejoin: miter; stroke-miterlimit: 10; fill: rgb(0,0,0); fill-rule: nonzero; opacity: 1;" transform=" matrix(1 0 0 1 0 0) " stroke-linecap="round" />
	<path d="M 45.916 54.286 h -1.831 c -0.552 0 -1 -0.447 -1 -1 s 0.448 -1 1 -1 h 1.831 c 0.552 0 1 0.447 1 1 S 46.468 54.286 45.916 54.286 z" style="stroke: none; stroke-width: 1; stroke-dasharray: none; stroke-linecap: butt; stroke-linejoin: miter; stroke-miterlimit: 10; fill: rgb(0,0,0); fill-rule: nonzero; opacity: 1;" transform=" matrix(1 0 0 1 0 0) " stroke-linecap="round" />
	<path d="M 45 90 c -17.208 0 -35.498 -3.255 -35.498 -9.286 v -23.81 c 0 -0.553 0.448 -1 1 -1 s 1 0.447 1 1 c 0 3.042 12.744 7.286 33.498 7.286 c 20.754 0 33.498 -4.244 33.498 -7.286 c 0 -0.553 0.447 -1 1 -1 s 1 0.447 1 1 v 23.81 C 80.498 86.745 62.209 90 45 90 z M 11.502 60.156 v 20.558 C 11.502 83.756 24.246 88 45 88 c 20.754 0 33.498 -4.244 33.498 -7.286 V 60.156 C 73.3 64.097 58.803 66.19 45 66.19 C 31.198 66.19 16.701 64.097 11.502 60.156 z" style="stroke: none; stroke-width: 1; stroke-dasharray: none; stroke-linecap: butt; stroke-linejoin: miter; stroke-miterlimit: 10; fill: rgb(0,0,0); fill-rule: nonzero; opacity: 1;" transform=" matrix(1 0 0 1 0 0) " stroke-linecap="round" />
	<path d="M 45.916 78.096 h -1.831 c -0.552 0 -1 -0.447 -1 -1 s 0.448 -1 1 -1 h 1.831 c 0.552 0 1 0.447 1 1 S 46.468 78.096 45.916 78.096 z" style="stroke: none; stroke-width: 1; stroke-dasharray: none; stroke-linecap: butt; stroke-linejoin: miter; stroke-miterlimit: 10; fill: rgb(0,0,0); fill-rule: nonzero; opacity: 1;" transform=" matrix(1 0 0 1 0 0) " stroke-linecap="round" />
</g>
</svg>