<svg xmlns="http://www.w3.org/2000/svg" xmlns:xlink="http://www.w3.org/1999/xlink" version="1.1" width="256" height="256" viewBox="0 0 256 256" xml:space="preserve">

<defs>
</defs>
<g style="stroke: none; stroke-width: 0; stroke-dasharray: none; stroke-linecap: butt; stroke-linejoin: miter; stroke-miterlimit: 10; fill: none; fill-rule: nonzero; opacity: 1;" transform="translate(1.4065934065934016 1.4065934065934016) scale(2.81 2.81)" >
	<path d="M 6.804 73.711 l 3.969 6.856 c 0.825 1.443 2.01 2.577 3.402 3.402 l 14.175 -24.536 H 0 c 0 1.598 0.412 3.196 1.237 4.639 L 6.804 73.711 z" style="stroke: none; stroke-width: 1; stroke-dasharray: none; stroke-linecap: butt; stroke-linejoin: miter; stroke-miterlimit: 10; fill: rgb(0,102,218); fill-rule: nonzero; opacity: 1;" transform=" matrix(1 0 0 1 0 0) " stroke-linecap="round" />
	<path d="M 45 30.567 L 30.825 6.031 c -1.392 0.825 -2.577 1.959 -3.402 3.402 L 1.237 54.794 C 0.428 56.206 0.001 57.805 0 59.433 h 28.351 L 45 30.567 z" style="stroke: none; stroke-width: 1; stroke-dasharray: none; stroke-linecap: butt; stroke-linejoin: miter; stroke-miterlimit: 10; fill: rgb(0,172,71); fill-rule: nonzero; opacity: 1;" transform=" matrix(1 0 0 1 0 0) " stroke-linecap="round" />
	<path d="M 75.825 83.969 c 1.392 -0.825 2.577 -1.959 3.402 -3.402 l 1.649 -2.835 l 7.887 -13.66 C 89.588 62.629 90 61.031 90 59.433 H 61.647 l 6.033 11.856 L 75.825 83.969 z" style="stroke: none; stroke-width: 1; stroke-dasharray: none; stroke-linecap: butt; stroke-linejoin: miter; stroke-miterlimit: 10; fill: rgb(234,67,53); fill-rule: nonzero; opacity: 1;" transform=" matrix(1 0 0 1 0 0) " stroke-linecap="round" />
	<path d="M 45 30.567 L 59.175 6.031 c -1.392 -0.825 -2.99 -1.237 -4.639 -1.237 H 35.464 c -1.649 0 -3.247 0.464 -4.639 1.237 L 45 30.567 z" style="stroke: none; stroke-width: 1; stroke-dasharray: none; stroke-linecap: butt; stroke-linejoin: miter; stroke-miterlimit: 10; fill: rgb(0,131,45); fill-rule: nonzero; opacity: 1;" transform=" matrix(1 0 0 1 0 0) " stroke-linecap="round" />
	<path d="M 61.649 59.433 H 28.351 L 14.175 83.969 c 1.392 0.825 2.99 1.237 4.639 1.237 h 52.371 c 1.649 0 3.247 -0.464 4.639 -1.237 L 61.649 59.433 z" style="stroke: none; stroke-width: 1; stroke-dasharray: none; stroke-linecap: butt; stroke-linejoin: miter; stroke-miterlimit: 10; fill: rgb(38,132,252); fill-rule: nonzero; opacity: 1;" transform=" matrix(1 0 0 1 0 0) " stroke-linecap="round" />
	<path d="M 75.67 32.113 L 62.577 9.433 c -0.825 -1.443 -2.01 -2.577 -3.402 -3.402 L 45 30.567 l 16.649 28.866 h 28.299 c 0 -1.598 -0.412 -3.196 -1.237 -4.639 L 75.67 32.113 z" style="stroke: none; stroke-width: 1; stroke-dasharray: none; stroke-linecap: butt; stroke-linejoin: miter; stroke-miterlimit: 10; fill: rgb(255,186,0); fill-rule: nonzero; opacity: 1;" transform=" matrix(1 0 0 1 0 0) " stroke-linecap="round" />
</g>
</svg>