<svg width="264" height="60" viewBox="0 0 264 60" fill="none" xmlns="http://www.w3.org/2000/svg">
<path d="M41.2868 13.1898C40.5882 12.9508 40.3676 12.9324 40.2941 13.1162C40.2574 13.2265 39.9449 13.3368 39.5956 13.3368C38.989 13.3368 38.9706 13.3184 38.9706 12.6015C38.9706 12.1971 39.0993 11.5537 39.2463 11.1861C39.614 10.3037 39.614 10.267 38.8787 10.1383C38.3824 10.0464 38.2353 9.91769 38.2353 9.62358C38.2353 9.25593 38.2169 9.25593 37.9044 9.53166C37.4265 9.97284 35.864 9.95446 35.7353 9.53166C35.6801 9.34784 35.5515 9.03534 35.4779 8.83314C35.1103 7.96916 35.1103 7.6199 35.4596 6.7927C35.9191 5.78167 36.4522 5.72652 36.5441 6.6824C36.6176 7.4177 36.7463 7.4177 37.2243 6.71917C37.6287 6.11255 37.9228 5.94711 38.3272 6.09417C38.7132 6.24122 38.6765 6.35152 37.9596 7.36255C37.5551 7.95078 37.3897 8.33681 37.5 8.44711C37.6103 8.5574 37.7941 8.50225 38.0147 8.31843C38.1985 8.15299 38.4191 8.06108 38.511 8.13461C38.5846 8.22652 38.6029 8.18975 38.5478 8.06108C38.4007 7.84049 39.4118 6.90299 39.7978 6.90299C39.9265 6.90299 40.1287 7.16034 40.239 7.47284C40.3493 7.78534 39.1544 8.96728 39.375 9.1511C39.7794 9.48198 41.2316 8.68608 40.9007 9.62358C40.6066 10.4324 40.6951 10.1383 40.5 10.6511C40.2941 11.0261 40.2941 11.1019 40.125 11.4011C39.9632 11.9543 39.6213 12.3625 39.6213 12.6383C39.6213 12.8405 42.1324 13.4655 41.2868 13.1898Z" fill="#2E6886"/>
<path d="M27.2316 5.49306C27.5257 4.64747 27.4375 5.41955 28.3566 5.49308C28.9265 5.54823 29.4816 4.69526 29.4816 5.11806C29.4816 5.4857 28.8713 6.55377 27.75 6.71922C26.886 6.84789 26.9375 6.33864 27.2316 5.49306Z" fill="#2E6886"/>
<path d="M0.422794 49.8258C0.183824 49.6603 0 49.4581 0 49.3478C0 49.164 0.974265 49.1272 1.61765 49.2927C2.04044 49.4214 2.1875 49.9177 1.80147 49.9177C1.67279 49.9177 1.39706 49.9728 1.19485 50.028C0.992647 50.0647 0.643382 49.9912 0.422794 49.8258Z" fill="#5E7E8C"/>
<path d="M13.8235 23.778C13.6949 23.6493 13.6029 23.2633 13.6029 22.8956C13.6029 22.0133 14.1728 21.7008 15.7904 21.7008C17.0037 21.7008 17.0037 21.7008 17.0588 22.6199C17.114 23.5574 17.114 23.5574 16.0294 23.778C14.6691 24.0537 14.0993 24.0537 13.8235 23.778Z" fill="#BE6845"/>
<path d="M14.7059 54.0354C10.7904 53.6126 3.40074 51.5721 3.16176 50.8552C3.08824 50.6162 3.03309 50.6162 7.44485 50.9103C9.20956 51.0206 11.3051 51.1125 16.636 51.2964C18.4559 51.3515 23.9154 51.3331 28.75 51.2412C33.6029 51.1309 37.7206 51.1125 37.9044 51.1861C38.0882 51.2596 39.2647 51.2045 40.4963 51.0942C41.7279 50.9839 43.6949 50.8552 44.8529 50.8184C46.7096 50.7449 46.9669 50.7817 47.0221 51.0574C47.0588 51.2964 46.8015 51.4067 45.7353 51.6456C43.3456 52.142 40.386 52.675 38.8787 52.8589C38.0699 52.9508 36.5809 53.1714 35.5699 53.3185C30.9191 54.0354 26.7831 54.3295 21.8566 54.3111C19.1912 54.2927 15.9743 54.1641 14.7059 54.0354Z" fill="#3289B2"/>
<path d="M50.7721 50.267C50.8456 49.6787 51.7279 49.3846 53.4559 49.3846C54.4853 49.3662 54.7794 49.4214 54.7794 49.6236C54.7794 49.8809 53.4375 50.267 51.5074 50.5795C50.7353 50.7081 50.6985 50.6898 50.7721 50.267Z" fill="#3289B2"/>
<path d="M31.9853 10.7265C31.9853 10.5059 31.5809 9.95446 30.9743 9.36622C30.4228 8.81475 29.9632 8.30005 29.9632 8.18975C29.9632 7.87725 29.5037 7.98755 29.2647 8.37358C29.0809 8.68608 28.8419 8.74122 27.5735 8.74122C26.7647 8.74122 26.1029 8.70446 26.1029 8.66769C26.1029 8.63093 26.2684 8.06108 26.4706 7.39931C26.8382 6.20446 27.2243 5.67137 27.5551 5.87358C27.7574 6.00225 28.9338 5.6217 28.9338 5.40111C28.9338 5.08861 29.625 5.02611 29.25 5.40111C29.3603 5.64008 29.7541 6.60887 30.0666 6.7927C30.9858 7.28902 31.9853 7.96916 31.875 8.26328C31.8199 8.41034 31.9853 8.70446 32.2426 8.94343C32.7206 9.36622 32.8309 9.88093 32.6103 10.7265C32.4632 11.2412 31.9853 11.2596 31.9853 10.7265Z" fill="#3289B2"/>
<path d="M33.0882 11.039C33.0882 10.9839 33.125 10.9471 33.1801 10.9471C33.2353 10.9471 33.2721 10.9839 33.2721 11.039C33.2721 11.0942 33.2353 11.1309 33.1801 11.1309C33.125 11.1309 33.0882 11.0942 33.0882 11.039Z" fill="#3289B2"/>
<path d="M34.9265 10.3221C34.9265 10.1934 34.7978 9.97284 34.6507 9.84416C34.2463 9.51328 34.3015 9.01696 34.8529 8.07946C35.3493 7.23387 35.6985 7.12358 35.8272 7.74858C35.8456 7.9324 36.011 8.22652 36.1397 8.39196C36.2868 8.5574 36.3971 8.81475 36.3603 8.94343C36.3235 9.07211 36.4706 9.21916 36.6912 9.25593C36.9485 9.29269 37.3529 9.01696 37.9779 8.37358C38.5294 7.80372 39.0257 7.45446 39.2831 7.45446C39.8529 7.45446 39.8346 8.00593 39.2463 8.5574C38.989 8.79637 38.7868 9.09049 38.7868 9.21916C38.7868 9.51328 39.4485 9.66034 39.6875 9.42137C39.8346 9.27431 39.8897 9.36622 39.8897 9.71549C39.8897 9.99122 39.7794 10.2486 39.6691 10.2853C39.5404 10.3405 38.4191 10.414 37.1875 10.4692C35.3493 10.5611 34.9265 10.5243 34.9265 10.3221Z" fill="#3289B2"/>
<path d="M5.82721 50.1567C5.33088 50.0831 5.29412 50.0464 5.4228 49.403C5.49632 49.0353 5.64338 48.6125 5.7353 48.4839C5.99265 48.1897 8.63971 46.9398 9.92647 46.517C10.4779 46.3515 11.1397 46.0942 11.3971 45.9655C12.9044 45.1934 18.3824 43.7596 21.5993 43.3C23.2537 43.0427 27.2794 42.9508 27.4816 43.153C27.6838 43.3552 27.8125 44.8809 27.6838 45.3956C27.5919 45.7817 27.4265 45.892 26.8199 45.9839C26.2132 46.0942 26.0662 46.1861 25.9926 46.5905C25.7904 47.5648 23.7684 48.5942 21.5074 48.9067C20.5147 49.0353 19.6691 49.3662 19.1176 49.8258C18.9154 49.9912 17.2059 50.0831 12.5919 50.1383C9.15441 50.175 6.10294 50.1934 5.82721 50.1567Z" fill="#E3662C"/>
<path d="M14.8853 23.4395C14.8853 24.0539 14.3872 24.552 13.7728 24.552C13.1583 24.552 12.6602 24.0539 12.6602 23.4395C12.6602 22.825 13.1583 22.3269 13.7728 22.3269C14.3872 22.3269 14.8853 22.825 14.8853 23.4395Z" fill="#E3662C"/>
<path d="M32.0772 27.1052C31.5809 26.903 30.5699 26.664 29.8346 26.5721C29.1176 26.4802 27.6838 26.1493 26.6544 25.8368C25.5698 25.5243 24.3199 25.2853 23.7316 25.2853C23.1618 25.267 22.2978 25.1199 21.7831 24.9545C20.7353 24.6052 20.5699 24.2192 20.9743 23.0243C21.2316 22.2339 21.0846 22.2522 23.4743 22.6383C24.0809 22.7302 24.4853 22.6567 25.1838 22.3625C25.6801 22.142 26.4706 21.9214 26.9301 21.8478C27.6471 21.7559 27.8309 21.8111 28.125 22.1236C28.3272 22.3442 28.4926 22.675 28.4926 22.8773C28.4926 23.5206 29.2831 24.1824 30.0368 24.1824C30.625 24.1824 30.6985 24.2375 30.6985 24.6236C30.6985 25.028 30.8088 25.1015 31.5257 25.2118C32.5184 25.3589 33.4007 25.2118 33.8235 24.8258C34.2279 24.4581 37.1691 24.017 37.261 24.3111C37.3713 24.6052 38.0331 24.3846 38.2537 23.9802C38.5294 23.4655 39.6507 23.5206 40.6985 24.1089C41.4706 24.55 41.5441 24.642 41.5441 25.3037C41.5441 25.9839 41.5257 26.0206 40.9375 26.0206C40.6066 26.0206 40.239 25.9287 40.1103 25.8C39.9448 25.6346 39.8162 25.653 39.5772 25.8736C39.3934 26.039 38.8787 26.2228 38.4191 26.2964C37.2978 26.4618 35.8088 26.9398 35.4596 27.2339C35.0368 27.6015 33.1801 27.528 32.0772 27.1052Z" fill="#0C96DC"/>
<path d="M15.9926 23.3736C15.9926 23.2081 16.1213 23.0795 16.2868 23.0795C16.4706 23.0795 16.5441 22.9508 16.5074 22.675C16.4706 22.3625 16.3051 22.2339 15.9559 22.1971C14.6507 22.05 15.9743 20.5059 17.4081 20.5059C18.364 20.5059 19.3015 20.9839 19.3015 21.4618C19.3015 21.6456 19.4118 21.7927 19.5588 21.7927C19.8713 21.7927 20.0368 22.1971 20.0368 22.914C20.0368 23.392 19.9816 23.4471 19.4301 23.4471C19.0809 23.4471 18.1801 23.5023 17.4081 23.5574C16.1765 23.6677 15.9926 23.6493 15.9926 23.3736Z" fill="#0C96DC"/>
<path d="M25.9926 9.1824C26.0478 9.01696 26.1029 8.77799 26.1029 8.63093C26.1029 8.26328 26.9669 7.96917 27.6103 8.09784C28.3456 8.26328 28.2537 8.57578 27.3529 9.07211C26.4154 9.55005 25.8272 9.60519 25.9926 9.1824Z" fill="#0C96DC"/>
<path d="M29.9632 8.83313C29.7243 8.57578 29.2831 8.30005 29.0074 8.22652C28.4927 8.09784 28.4926 8.09784 28.9338 7.60152C29.4853 6.93975 30.0551 6.93975 30.4596 7.60152C30.625 7.87725 31.0662 8.35519 31.4154 8.68608C32.0772 9.27431 32.0772 9.27431 31.2316 9.29269C30.5699 9.29269 30.3125 9.20078 29.9632 8.83313Z" fill="#0C96DC"/>
<path d="M39.375 26.2228C39.2279 26.1309 39.1544 25.7633 39.1728 25.2486C39.2279 24.403 39.2279 24.403 39.8713 24.7706C40.239 24.9728 40.6434 25.2302 40.7721 25.3221C40.9191 25.4508 40.9926 25.4508 40.9926 25.3037C40.9926 25.1934 40.6434 24.9177 40.2206 24.6971C39.4669 24.2927 39.4485 24.2743 39.9265 24.2192C40.2022 24.1824 40.6801 24.3295 41.0662 24.5868C41.5809 24.9177 41.7279 25.1199 41.7279 25.5795C41.7279 25.9471 41.6176 26.2045 41.4338 26.278C41.011 26.4434 39.6507 26.4067 39.375 26.2228Z" fill="#4EA3A7"/>
<path d="M17.8309 49.8442C17.8309 49.7155 17.9779 49.55 18.1618 49.4765C18.3272 49.4214 18.8051 49.164 19.1912 48.925C19.5772 48.6861 20.3676 48.4287 20.9191 48.3552C23.1618 48.0795 25.239 47.0133 25.4412 46.039C25.5147 45.6346 25.6618 45.5427 26.2684 45.4324C27.0772 45.3037 27.2978 44.9545 27.0956 44.1456C27.0221 43.8148 26.8566 43.6677 26.5809 43.6677C25.9007 43.6677 25.3676 43.4471 25.3676 43.1898C25.3676 42.9875 25.9559 42.9324 28.4559 42.9324C31.4522 42.9324 31.5625 42.9508 31.9485 43.3552C32.4816 43.9067 32.5368 45.3037 32.0404 45.3405C31.8566 45.3589 32.0037 45.4508 32.3529 45.5427C32.7022 45.653 33.364 45.7081 33.8235 45.6714C34.7794 45.5978 37.4081 45.5978 38.6029 45.653C39.0625 45.6714 40.239 45.653 41.2316 45.5795C43.0147 45.4692 43.0147 45.4692 43.0147 46.1861C43.0147 46.7559 42.9228 46.9581 42.6103 47.1052C41.9669 47.3993 38.511 48.0978 36.011 48.4287C35.3493 48.5206 34.4669 48.6861 34.0809 48.778C33.6765 48.8883 32.7941 49.017 32.0772 49.0721C31.3787 49.1456 29.9265 49.3111 28.8603 49.4581C26.6728 49.7523 21.636 50.1015 19.3566 50.1015C18.1801 50.1015 17.8309 50.0464 17.8309 49.8442Z" fill="#F18526"/>
<path d="M42.0037 39.1824C41.3787 38.5942 41.3419 38.4839 41.3971 37.5648C41.4522 36.5905 41.4522 36.5905 42.1875 36.5353C42.886 36.4986 42.9596 36.5353 43.4375 37.289C43.7868 37.8773 43.9338 38.3368 43.9338 38.9618C43.9338 39.8074 43.9338 39.8074 43.3088 39.8074C42.8309 39.8074 42.5 39.642 42.0037 39.1824Z" fill="#F18526"/>
<path d="M34.4485 34.0721C34.5037 33.539 34.5404 32.5464 34.5404 31.8846C34.5404 30.7817 34.5772 30.653 35 30.3773C35.2574 30.1934 35.5882 30.0647 35.7537 30.0647C35.9559 30.0647 36.0294 29.8809 36.0294 29.403C36.0294 28.5574 36.3787 28.2265 37.2978 28.2265C38.0147 28.2265 38.0515 28.1898 38.0515 27.675C38.0515 27.0133 38.4743 26.7559 39.5956 26.7559C40.4228 26.7559 40.4412 26.7559 40.4412 27.3625C40.4412 28.1162 39.7978 28.778 39.0993 28.778C38.7316 28.778 38.6029 28.8699 38.6029 29.1273C38.6029 29.3846 38.7868 29.5133 39.2463 29.5868C40.0368 29.7339 40.2574 30.1383 40.2574 31.425C40.2574 32.4545 40.2574 32.4545 39.4669 32.4545C38.5846 32.4545 37.9412 32.0133 37.7574 31.2596C37.5184 30.3037 37.1875 30.8184 36.9485 32.528C36.7279 33.9802 36.011 34.9177 35.0184 34.9912C34.3382 35.0464 34.3382 35.0464 34.4485 34.0721Z" fill="#F18526"/>
<path d="M41.5441 47.0317C41.5441 46.9398 41.7463 46.7375 42.0037 46.6089C42.8125 46.1677 42.5368 46.0023 41.2316 46.1493C40.5331 46.2228 39.5404 46.278 39.0257 46.2596C37.0772 46.2596 34.3566 46.2596 33.4191 46.278C32.886 46.2964 32.1507 46.2228 31.8015 46.1125C31.3051 45.9839 31.0294 46.0206 30.6066 46.2596C29.9081 46.6456 29.0441 46.8478 29.0441 46.6273C29.0441 46.5353 29.2096 46.3883 29.4118 46.3331C29.614 46.278 29.7794 46.1309 29.7794 46.039C29.7794 45.9287 29.6875 45.9103 29.5956 45.9655C29.4853 46.0206 29.4118 46.0023 29.4118 45.892C29.4118 45.6346 30.5515 44.9728 31.2316 44.8442C31.5441 44.7706 31.8015 44.6236 31.8015 44.4949C31.8015 44.2192 31.0294 43.4839 30.7353 43.4839C30.6066 43.4839 30.5147 43.3552 30.5147 43.1898C30.5147 42.914 30.7353 42.8956 32.6103 43.0059C33.75 43.0795 35.2022 43.2081 35.8272 43.3184C36.875 43.4839 37.1507 43.4471 39.3199 42.8405C41.6544 42.1971 43.75 41.9949 43.75 42.3993C43.75 42.4912 43.8051 42.5464 43.8971 42.5096C43.9706 42.4545 47.3346 42.3625 51.3787 42.3074C60.0184 42.1787 60.5331 42.2339 60.625 43.3552C60.6801 43.9986 60.6618 44.017 59.9816 44.1273C59.5956 44.2008 58.989 44.3295 58.6397 44.4214C58.2904 44.5133 57.6654 44.5868 57.261 44.5868C56.8382 44.5868 55.5699 44.789 54.4118 45.028C53.2537 45.267 51.8934 45.5243 51.3787 45.5795C49.7978 45.8 47.5735 46.2596 46.3787 46.6089C45.0735 47.0133 41.5441 47.3074 41.5441 47.0317Z" fill="#FD9A08"/>
<path d="M31.0662 46.1493C31.0662 46.0942 31.1029 46.0574 31.1581 46.0574C31.2132 46.0574 31.25 46.0942 31.25 46.1493C31.25 46.2045 31.2132 46.2412 31.1581 46.2412C31.1029 46.2412 31.0662 46.2045 31.0662 46.1493Z" fill="#FD9A08"/>
<path d="M67.0037 44.4581C66.2316 44.3295 65.9926 44.0905 65.9926 43.392C65.9926 42.528 66.9853 42.2706 68.0882 42.8405C68.364 42.9875 68.7316 43.1162 68.8787 43.1162C69.0625 43.1162 69.1176 43.3 69.0809 43.8147C69.0257 44.4765 69.0074 44.4949 68.2904 44.5133C67.886 44.5317 67.3162 44.4949 67.0037 44.4581Z" fill="#FD9A08"/>
<path d="M60.8456 43.4103C60.8456 42.8037 60.864 42.8037 61.8199 42.675C62.3346 42.6199 63.0882 42.5648 63.4743 42.5648C64.1544 42.5648 64.1544 42.5648 64.1544 43.3C64.1544 44.0353 64.1544 44.0353 62.5 44.0353C60.8456 44.0353 60.8456 44.0353 60.8456 43.4103Z" fill="#FD9A08"/>
<path d="M41.1765 37.6015C41.1765 37.2339 40.4044 35.5427 40.0184 35.0464C39.3934 34.2743 39.136 32.2706 39.5956 31.7927C40.2022 31.2045 40.5147 31.4802 41.3971 33.3368C42.7022 36.1309 42.8309 36.4802 42.8309 37.1052C42.8125 37.6567 42.7941 37.675 42.5551 37.3442C42.261 36.9581 41.9118 37.1052 41.9118 37.6199C41.9118 37.8405 41.7831 37.9692 41.5441 37.9692C41.3051 37.9692 41.1765 37.8405 41.1765 37.6015Z" fill="#FD9A08"/>
<path d="M36.636 30.8184C36.6912 30.5427 36.636 30.5059 36.3235 30.5795C36.1213 30.6346 35.8272 30.7449 35.7169 30.8552C35.3125 31.1493 35.4412 30.028 35.8456 29.5317C36.3051 28.9986 36.7647 29.1456 36.7647 29.8074C36.7647 30.1934 36.8382 30.267 37.1324 30.1934C37.4265 30.1199 37.5 30.1934 37.5 30.5243C37.5 30.9103 37.1875 31.1677 36.7279 31.1677C36.6176 31.1677 36.5809 31.0206 36.636 30.8184Z" fill="#FD9A08"/>
<path d="M37.9412 29.2927C37.9596 28.9802 37.8493 28.8515 37.5551 28.8147C37.2978 28.778 37.1324 28.6309 37.1324 28.4287C37.1324 28.0427 37.8676 27.3074 38.2537 27.3074C38.4375 27.3074 38.6029 27.0317 38.7132 26.6272C38.8787 25.9287 38.8787 25.9287 39.9449 25.8736C40.9926 25.8184 40.9926 25.8184 40.9926 26.4802C40.9926 27.4361 40.7169 27.8589 40.0735 27.8589C39.5956 27.8589 39.5221 27.9324 39.5221 28.3736C39.5221 28.9802 38.8603 29.6971 38.3088 29.6971C38.0331 29.6971 37.9412 29.5868 37.9412 29.2927ZM39.6324 27.3442C39.4853 27.3074 39.1912 27.3809 38.9706 27.4912C38.6581 27.6567 38.6213 27.7486 38.8051 27.9692C38.989 28.2081 39.0809 28.1897 39.4669 27.8221C39.8346 27.4912 39.8529 27.3809 39.6324 27.3442Z" fill="#FD9A08"/>
<path d="M33.4007 28.4655C33.3272 28.4103 33.2721 28.0243 33.2721 27.6383C33.2721 26.9581 33.2904 26.9397 33.8971 26.9397C34.2463 26.9397 34.6507 26.8846 34.8162 26.8295C35.0551 26.7375 35.1103 26.8478 35.1103 27.3625C35.1103 28.392 34.9632 28.5942 34.2096 28.5942C33.8235 28.5942 33.4559 28.539 33.4007 28.4655Z" fill="#FD9A08"/>
<path d="M14.8713 51.8662C14.8346 51.8111 13.1434 51.7375 11.1213 51.6824C4.77941 51.4986 3.56618 51.3515 1.74632 50.4875C-0.0551475 49.6603 0.183823 49.4765 3.08823 49.403C5.07353 49.3662 5.51471 49.3111 5.51471 49.0905C5.51471 48.9434 5.68015 48.8148 5.88235 48.8148C6.28676 48.8148 6.37867 49.0905 6.02941 49.3111C5.49632 49.6236 7.38971 49.6787 15.386 49.5317C23.0882 49.403 27.1507 49.2008 28.5846 48.8699C29.7426 48.6125 38.8603 48.5574 50.239 48.7412C56.0478 48.8331 57.5368 48.9067 57.5368 49.0905C57.5368 49.4214 56.0478 49.7523 53.8419 49.9177C52.7941 49.9912 51.8566 50.175 51.5441 50.3405C50.6985 50.8184 47.5 51.3515 45.4963 51.3699C44.4853 51.3883 42.3897 51.517 40.8272 51.664C38.6397 51.8846 37.8493 51.903 37.3529 51.7375C37.0037 51.6273 36.3603 51.5721 35.9375 51.6273C34.9816 51.7743 15 51.9765 14.8713 51.8662Z" fill="#3CA2CD"/>
<path d="M38.2353 25.9655C38.2353 25.8368 38.4191 25.653 38.6581 25.5611C38.8787 25.4508 39.0809 25.267 39.0809 25.1567C39.0993 25.028 39.136 24.8625 39.1544 24.789C39.1728 24.6971 39.1912 24.5684 39.1544 24.4581C39.136 24.3662 39.3015 24.4397 39.5221 24.642C39.7426 24.8442 39.8713 25.1383 39.8346 25.3221C39.7794 25.5243 39.8713 25.6897 40.0919 25.7449C40.7353 25.9471 40.2574 26.2045 39.2279 26.2045C38.5478 26.2045 38.2353 26.1309 38.2353 25.9655Z" fill="#3CA2CD"/>
<path d="M38.4926 24.55C38.5478 24.2927 38.6029 24.0353 38.6029 23.9618C38.6029 23.6493 39.8529 23.8331 40.1654 24.1824C40.6434 24.6971 40.386 24.8258 39.7059 24.4214C39.136 24.0905 39.136 24.0905 38.7684 24.55C38.3824 25.0096 38.3824 25.0096 38.4926 24.55Z" fill="#3CA2CD"/>
<path d="M19.7243 24.1273C19.0809 23.8148 18.5662 23.4471 18.5662 23.3184C18.5662 23.1898 18.4926 23.0795 18.3824 23.0795C18.2904 23.0795 18.1985 23.0059 18.1985 22.9324C18.1985 22.8589 18.4926 22.8221 18.8419 22.8589C19.3934 22.9324 19.4669 22.8956 19.375 22.6383C19.3015 22.4545 19.136 22.3625 19.0074 22.4177C18.7868 22.5096 18.7132 22.3258 18.7684 21.8662C18.7684 21.8111 18.6213 21.6456 18.4375 21.4986C18.1434 21.278 18.1801 21.2596 18.8419 21.2596C19.8346 21.278 22.3162 22.3442 22.3897 22.7853C22.4449 23.0611 22.3897 23.1162 22.0588 23.0243C21.8382 22.9692 21.7096 22.9692 21.7647 23.0243C21.8199 23.0978 21.7831 23.2449 21.6728 23.392C21.5625 23.5206 21.5257 23.6309 21.6176 23.6309C21.7096 23.6309 21.6728 23.7045 21.5257 23.7964C21.3235 23.925 21.3603 23.9986 21.6728 24.164C21.875 24.2927 22.0588 24.4581 22.0588 24.55C22.0588 24.9177 20.8272 24.6971 19.7243 24.1273Z" fill="#3CA2CD"/>
<path d="M33.2721 11.3331C33.2721 11.1125 33.4007 10.9471 33.5478 10.9471C33.7132 10.9471 33.9338 10.5427 34.1544 9.84416C34.4853 8.72284 34.4853 8.72284 34.9816 9.10887C35.2574 9.32946 35.4779 9.62358 35.4779 9.78902C35.4779 9.95446 35.5882 10.028 35.7537 9.95446C35.9375 9.88093 36.0294 9.97284 36.0294 10.2118C36.0294 10.5059 35.9007 10.5795 35.4044 10.5795C34.8529 10.5795 34.761 10.6346 34.7059 11.0942C34.6507 11.517 34.5588 11.5905 33.9706 11.6456C33.364 11.7008 33.2721 11.6456 33.2721 11.3331Z" fill="#3CA2CD"/>
<path d="M39.3382 10.3773C38.8971 9.99122 38.8971 9.99122 39.3382 9.64196C39.9449 9.20078 40.8088 9.16402 40.8088 9.62358C40.7904 9.97284 40.2022 10.7633 39.9449 10.7633C39.8713 10.7449 39.5956 10.5795 39.3382 10.3773Z" fill="#3CA2CD"/>
<path d="M32.9044 26.664C32.9044 26.6089 32.9412 26.5721 32.9963 26.5721C33.0515 26.5721 33.0882 26.6089 33.0882 26.664C33.0882 26.7192 33.0515 26.7559 32.9963 26.7559C32.9412 26.7559 32.9044 26.7192 32.9044 26.664Z" fill="#22A4EB"/>
<path d="M30.2941 26.3331C29.5956 26.2228 29.0441 26.0758 29.0441 25.9839C29.0441 25.892 29.3199 25.8552 29.6507 25.9103C29.9632 25.9655 30.6066 26.0574 31.0662 26.1125C32.0037 26.2228 32.7574 26.5905 31.9853 26.5353C31.7279 26.5353 30.9743 26.425 30.2941 26.3331Z" fill="#22A4EB"/>
<path d="M33.4743 26.039C33.4559 25.8736 33.3272 25.8368 33.0515 25.9103C32.8125 25.9655 31.9485 25.9103 31.1213 25.8C29.5956 25.5795 29.5956 25.5795 29.8897 25.1383C30.1838 24.6971 30.1838 24.6971 29.5956 24.8258C29.0809 24.9361 28.9338 24.8809 28.4743 24.3662C28.1801 24.0537 27.9412 23.6309 27.9412 23.4287C27.9412 22.9692 27.3897 22.3442 27.0956 22.4728C26.8015 22.5831 26.7279 21.8846 27.0037 21.7192C27.6471 21.3147 27.1875 18.7596 26.2316 17.4545C25.9191 16.9949 25.4596 16.3699 25.239 16.0574C24.7426 15.3956 24.6691 13.9067 25.0735 13.1714C25.2206 12.914 25.2941 12.6015 25.239 12.4728C25.1838 12.3258 25.2757 12.2339 25.4779 12.2339C25.7904 12.2339 25.8272 12.1052 25.7721 11.0942C25.7353 10.4508 25.7904 9.71549 25.9007 9.43975C26.1397 8.79637 27.114 8.18975 27.8676 8.18975C28.1801 8.18975 28.5478 8.06108 28.6765 7.91402C29.0441 7.47284 29.7059 7.58314 30.386 8.18975C30.7353 8.50225 31.1581 8.74122 31.3051 8.74122C31.7831 8.74122 32.5368 9.8074 32.5368 10.5059C32.5368 10.8736 32.6287 11.1309 32.7757 11.1309C33.0882 11.1493 33.7316 11.7008 34.0074 12.2339C34.1544 12.4912 34.3934 13.5023 34.5772 14.4765C35.0919 17.289 36.9485 20.5059 36.9485 18.5758C36.9485 18.3368 37.0221 18.0978 37.114 18.0243C37.2059 17.9692 37.3346 17.675 37.4081 17.3809C37.4816 17.0684 37.6838 16.7192 37.8676 16.5905C38.0515 16.4618 38.2721 16.1309 38.3272 15.8552C38.4375 15.4508 38.5662 15.3589 39.0441 15.3589C40.1471 15.3589 40.1287 15.2486 39.9816 20.1015C39.8529 24.403 39.8346 24.5133 39.4853 24.3111C39.1912 24.1273 39.0809 24.1456 38.8235 24.4765C38.6581 24.6787 38.2537 24.9545 37.9228 25.0831C37.3162 25.3221 36.489 25.2118 36.6728 24.8993C36.7463 24.8074 36.7096 24.7339 36.5993 24.7339C36.5074 24.7339 36.3787 24.8074 36.3235 24.8993C36.2684 24.9728 35.8824 25.0464 35.4779 25.0464C34.6324 25.0464 34.0257 25.414 34.4118 25.6898C34.5772 25.8184 34.4853 25.8368 34.1544 25.7817C33.8051 25.7265 33.6397 25.8 33.5846 26.0023C33.5294 26.2045 33.4926 26.2045 33.4743 26.039Z" fill="#22A4EB"/>
<path d="M37.9228 25.7081C37.9963 25.653 38.1066 25.653 38.1801 25.7081C38.2353 25.7817 38.1801 25.8368 38.0515 25.8368C37.9228 25.8368 37.8676 25.7817 37.9228 25.7081Z" fill="#22A4EB"/>
<path d="M68.8419 44.8258C68.6397 44.7706 68.125 44.6236 67.6838 44.4765C67.2243 44.3295 66.1581 44.2192 65.0735 44.2192C64.0625 44.2192 63.1985 44.1456 63.1434 44.0353C63.0882 43.9434 62.8676 43.8515 62.6654 43.8515C62.4816 43.8515 62.3162 43.9434 62.3162 44.0353C62.3162 44.1456 61.636 44.2192 60.6618 44.2192C59.3566 44.2192 59.0074 44.164 59.0074 43.9618C59.0074 43.8148 59.2647 43.6493 59.5772 43.5758C60.2757 43.4103 60.0919 43.2265 59.0074 42.9692C58.1618 42.767 47.886 42.8221 44.6507 43.0243C43.6029 43.0978 43.0147 43.0795 42.9228 42.9508C42.8676 42.8405 42.6471 42.7486 42.4449 42.7486C42.2243 42.7486 42.0956 42.6199 42.0956 42.3993C42.0956 42.0868 42.4449 41.9581 44.4485 41.4986C49.5772 40.2853 51.3235 40.0831 56.4706 40.0831C61.1765 40.0831 61.1765 40.0831 61.6177 40.5611C61.9302 40.892 62.3529 41.0758 62.9596 41.1861C63.8051 41.2964 68.75 42.9508 69.9081 43.4839C70.2941 43.6861 70.4044 43.8515 70.4044 44.3478C70.4044 44.9177 70.3676 44.9545 69.8162 44.9361C69.4853 44.9177 69.0441 44.8809 68.8419 44.8258ZM68.4743 43.8515C68.5294 43.7596 68.4375 43.6677 68.2721 43.6677C68.0882 43.6677 67.8125 43.539 67.6287 43.3736C67.1875 42.9875 66.4154 43.1898 66.7463 43.6125C66.875 43.7596 67.1691 43.8515 67.4081 43.7964C67.6471 43.7596 67.886 43.7964 67.9412 43.8699C68.0699 44.0905 68.3272 44.0721 68.4743 43.8515ZM63.6029 43.3184C63.6029 43.153 61.5809 43.2449 61.4154 43.4103C61.3787 43.4471 61.8382 43.4839 62.4632 43.4839C63.0882 43.4839 63.6029 43.4103 63.6029 43.3184ZM43.1985 42.8405C43.1985 42.7853 43.1618 42.7486 43.1066 42.7486C43.0515 42.7486 43.0147 42.7853 43.0147 42.8405C43.0147 42.8956 43.0515 42.9324 43.1066 42.9324C43.1618 42.9324 43.1985 42.8956 43.1985 42.8405Z" fill="#F3A32B"/>
<path d="M38.989 32.9875C38.7132 32.1603 38.7132 31.3883 39.0074 31.6824C39.3382 32.0133 39.7059 31.9397 39.7059 31.5353C39.7059 31.2964 39.8346 31.1677 40.0735 31.1677C40.386 31.1677 40.4412 31.2964 40.4412 32.05C40.4228 32.8956 40.4228 32.914 40.1471 32.4545C39.8713 31.9949 39.8713 32.0133 39.9449 32.7853C40.0368 33.5023 40 33.5574 39.614 33.5574C39.3015 33.5574 39.136 33.4103 38.989 32.9875Z" fill="#F3A32B"/>
<path d="M37.2243 30.9287C37.0221 30.8 36.8382 30.6898 36.8015 30.6714C36.7647 30.6714 37.1324 30.267 37.5919 29.789C38.2904 29.1089 38.4927 28.9802 38.7132 29.164C39.0257 29.4214 39.0809 30.3405 38.7684 30.1383C38.4927 29.9728 38.2169 30.4324 38.3456 30.8552C38.4191 31.0942 38.3456 31.1677 38.0147 31.1493C37.7757 31.1493 37.4265 31.039 37.2243 30.9287Z" fill="#F3A32B"/>
<path d="M35.9743 29.9912C35.9191 29.8442 35.4044 29.4949 34.8529 29.2192C34.2831 28.9434 33.8235 28.6493 33.8235 28.5758C33.8235 28.5023 33.5478 28.392 33.2353 28.3368C32.9044 28.2817 32.3529 28.0611 32.0404 27.8589C31.5441 27.5648 31.4338 27.3809 31.4338 26.8478C31.4338 26.4986 31.489 26.2045 31.5809 26.2045C31.6544 26.2045 32.1691 26.3699 32.7206 26.5721C33.9522 27.0133 34.5221 27.0317 34.9632 26.6273C35.2941 26.3331 35.3309 26.3331 35.7169 26.7743C35.9375 27.0317 36.4338 27.4728 36.8199 27.7486C37.4632 28.2265 37.739 28.778 37.2978 28.778C37.0404 28.778 36.5625 29.2559 36.6912 29.3846C36.8199 29.5133 36.4338 30.2486 36.2316 30.2486C36.1397 30.2486 36.0294 30.1383 35.9743 29.9912ZM34.4485 27.7486C34.5956 27.3809 34.5956 27.3074 34.4301 27.3074C34.1176 27.3074 33.7868 27.6567 33.8971 27.8405C34.0809 28.1346 34.3199 28.0978 34.4485 27.7486Z" fill="#F3A32B"/>
<path d="M33.4559 12.7853C33.4559 12.675 33.2537 12.4177 32.9963 12.1971C32.3713 11.6456 32.4081 11.1861 33.0882 11.039C33.3824 10.9655 33.7132 10.9655 33.8235 11.039C33.9338 11.0942 34.0809 10.9655 34.1728 10.7265C34.3199 10.3773 34.3566 10.4508 34.3566 11.1677C34.375 12.2155 34.1176 12.9692 33.7316 12.9692C33.5846 12.9692 33.4559 12.8773 33.4559 12.7853Z" fill="#B2C666"/>
<path d="M26.0478 49.4214C25.8456 49.0905 30.4412 48.5758 33.9706 48.539C36.636 48.5023 37.3162 48.539 37.3162 48.7412C37.3162 49.2008 35.8456 49.403 32.5551 49.3662C30.7721 49.3478 28.6029 49.3846 27.739 49.4581C26.7463 49.55 26.1213 49.5317 26.0478 49.4214Z" fill="#3FB6F3"/>
<path d="M36.5441 20.1934C35.7904 20.0096 34.4485 17.2523 34.0257 15.028C33.8419 14.0353 33.6213 13.0795 33.511 12.8773C33.4007 12.675 33.3824 12.4177 33.4559 12.2523C33.8971 11.4434 34.1912 10.6714 34.1912 10.3956C34.1912 10.028 35.5699 9.82578 38.2353 9.77064C40.386 9.71549 40.5515 9.86255 39.9632 11.3148C39.7243 11.9214 39.5221 12.5096 39.5404 12.6383C39.5404 12.767 39.614 12.6934 39.7059 12.4545C39.7978 12.2339 40 12.05 40.1471 12.05C40.386 12.05 40.4044 12.142 40.239 12.5648C40.1103 12.8405 40.0184 13.8883 40 14.8809C39.9816 16.1677 39.9081 16.7375 39.761 16.7927C39.614 16.8295 39.5221 16.7008 39.5221 16.4618C39.5221 16.2412 39.4485 16.1309 39.3382 16.1861C39.2463 16.2412 39.1544 16.1861 39.136 16.0574C39.136 15.9287 39.0441 16.0758 38.9338 16.3699C38.8235 16.6824 38.5846 17.0317 38.4007 17.1603C38.2353 17.2706 38.0331 17.6199 37.9596 17.9324C37.886 18.2265 37.7574 18.5206 37.6654 18.5758C37.5735 18.6493 37.5 18.778 37.5 18.8699C37.5 18.9802 37.5919 18.9986 37.6838 18.9434C38.0331 18.7228 37.8493 19.1273 37.3529 19.6971C37.0772 20.0096 36.7279 20.2302 36.5441 20.1934Z" fill="#3FB6F3"/>
<path d="M48.125 49.2192C47.5919 49.1089 47.7206 48.4839 48.3088 48.3736C50.2206 48.0243 59.1912 48.3184 59.1912 48.7228C59.1912 49.2192 57.5184 49.3846 52.9596 49.3478C50.4779 49.3111 48.2904 49.2743 48.125 49.2192Z" fill="#5EB8D2"/>
<path d="M30.8824 49.017C29.0625 48.8883 29.1176 48.7228 31.0662 48.5574C31.8199 48.5022 33.1801 48.3 34.0809 48.1162C35.3676 47.8772 35.7353 47.8589 35.8088 48.0427C35.8456 48.153 36.0294 48.2633 36.2316 48.2633C36.7279 48.2633 36.6912 48.925 36.1765 49.0721C35.6985 49.2008 33.2169 49.164 30.8824 49.017Z" fill="#5EB8D2"/>
<path d="M70.5882 45.414C70.3309 45.267 70 45.1567 69.8346 45.1383C69.6691 45.1383 69.3934 44.9177 69.2096 44.6603C68.8971 44.164 68.8971 44.164 69.375 44.2559C69.8529 44.3478 70.0184 44.164 69.6691 43.9434C69.5772 43.8883 69.3934 43.6677 69.3015 43.4839C69.1544 43.2081 69.5772 43.3368 71.1213 44.0905C73.0882 45.028 73.4743 45.3405 72.8677 45.5795C72.3529 45.7817 71.0662 45.6897 70.5882 45.414Z" fill="#E7AC61"/>
<path d="M5.625 49.4214C5.56985 49.3662 5.51471 49.0905 5.51471 48.8331C5.51471 48.5942 5.34926 47.914 5.16544 47.3625C4.52206 45.5059 4.31985 43.4287 4.35662 39.3478C4.375 34.8625 4.59559 33.5023 5.3125 33.4103C5.79044 33.3368 6.48897 33.9434 6.69118 34.6236C6.76471 34.8442 6.93015 35.028 7.04044 35.028C7.16912 35.028 7.46324 35.2486 7.70221 35.4875C7.94118 35.7449 8.27206 35.9471 8.4375 35.9655C8.60294 35.9655 8.98897 36.1309 9.28309 36.3331C9.59559 36.517 9.92647 36.7008 10.0184 36.7375C10.1287 36.7743 10.4963 36.9214 10.8456 37.05C11.5257 37.3258 12.8676 37.3625 14.0257 37.142C14.5772 37.0317 14.9449 37.1052 15.8088 37.4912C17.114 38.0795 19.614 38.4287 21.3787 38.2633C22.0588 38.2081 23.3824 37.8956 24.3382 37.6015C26.0662 37.05 27.2059 36.903 27.2059 37.2339C27.2059 37.6199 28.4743 37.3625 30.1471 36.6273C31.8934 35.8368 31.8934 35.8368 31.8382 34.8258C31.7647 33.8148 32.2426 31.7192 32.5184 31.7192C32.5919 31.7192 32.7941 31.3883 32.9596 30.9839C33.2353 30.267 33.2721 30.2486 34.0993 30.2486C34.5956 30.2486 34.9816 30.3405 35.0184 30.4692C35.1838 30.9103 35.1838 33.6493 35.0184 34.1089C34.8713 34.5317 34.8897 34.55 35.1838 34.3111C35.8456 33.7596 36.25 32.9692 36.3971 31.8846C36.489 31.278 36.6544 30.653 36.7831 30.5059C37.1324 30.0831 37.8125 30.1934 38.1801 30.7265C38.364 30.9839 38.6949 31.3699 38.9154 31.5721C39.136 31.7927 39.5404 32.4177 39.8162 32.9875C40.0735 33.5574 40.3676 34.1456 40.4596 34.2927C41.1397 35.4324 41.6912 36.7008 41.8015 37.3258C41.8934 37.8221 42.1507 38.2449 42.6103 38.6861C43.6213 39.6236 43.6029 38.9986 42.5735 37.3809C42.114 36.664 41.7279 35.9655 41.7279 35.8368C41.7279 35.7265 41.2684 34.6971 40.7169 33.5758C40.1654 32.4545 39.7059 31.4067 39.7059 31.278C39.7059 30.7265 39.4485 30.414 38.8603 30.1567C37.8309 29.7339 37.886 29.4398 39.2279 28.0611C39.8897 27.3625 40.4412 26.7008 40.4412 26.5905C40.4412 26.4802 40.239 26.3883 39.9816 26.3883C39.6507 26.3883 39.4669 26.517 39.3382 26.8478C39.2463 27.1052 38.8971 27.5464 38.5662 27.8405C37.9596 28.3736 37.9596 28.3736 37.7022 27.5648C37.4632 26.8295 37.3897 26.7559 36.8382 26.7559C36.3419 26.7559 36.2132 26.6824 36.2132 26.4067C36.2132 25.9287 36.8566 25.7817 39.0625 25.7265C41.3419 25.6714 41.1765 25.7081 41.0662 25.3773C40.9926 25.2118 41.0662 25.1015 41.25 25.1015C41.4154 25.1015 41.5441 24.9728 41.5441 24.8258C41.5441 24.6787 41.7463 24.4214 42.0037 24.2559C42.261 24.0905 42.4632 23.8148 42.4632 23.6309C42.4632 23.4471 42.5919 23.2081 42.7574 23.0611C43.0882 22.8037 43.75 21.5537 43.9338 20.892C44.0257 20.5243 44.2463 20.3772 45.0551 20.175C46.7096 19.7522 47.3346 19.7155 48.2353 20.028C48.7132 20.1934 49.3015 20.3221 49.5588 20.3221C49.8162 20.3221 50.4228 20.653 50.9559 21.0758C51.9118 21.8295 51.9118 21.8295 53.5662 21.7559C55.2022 21.7008 55.2022 21.7008 56.3603 23.3552C59.6324 28.0795 61.2684 33.0978 61.4338 38.925C61.4706 40.3221 61.4338 40.7449 61.2316 40.8184C61.1029 40.8736 60.2757 40.8184 59.3934 40.7081C57.261 40.414 52.5184 40.6162 49.7243 41.0942C46.636 41.6273 46.1949 41.7192 41.489 42.9692C37.2978 44.0905 37.2978 44.0905 35.1471 43.8331C32.4081 43.5023 24.4118 43.5023 22.2426 43.8148C18.9154 44.3295 13.4743 45.7449 11.9485 46.517C11.6912 46.6456 11.0294 46.903 10.4779 47.0868C8.91544 47.5831 6.94853 48.539 6.32353 49.0537C6.01103 49.3295 5.69853 49.4949 5.625 49.4214Z" fill="#FBE122"/>
<path d="M36.0294 30.2853C36.0294 30.1934 36.1581 30.0096 36.3051 29.8809C36.4522 29.7523 36.5809 29.7339 36.5809 29.8442C36.5809 29.9361 36.4522 30.1199 36.3051 30.2486C36.1581 30.3773 36.0294 30.3956 36.0294 30.2853Z" fill="#FBE122"/>
<path d="M36.1029 29.1089C36.0294 28.9802 36.0478 28.9618 36.1765 29.0353C36.3051 29.1089 36.3971 29.2008 36.3971 29.2559C36.3971 29.403 36.2316 29.3295 36.1029 29.1089Z" fill="#FEF70F"/>
<path d="M38.4927 28.7964C38.8052 28.4839 39.0993 28.2265 39.1912 28.2265C39.4118 28.2265 38.75 28.9618 38.3272 29.1824C38.0699 29.3111 38.125 29.2008 38.4927 28.7964Z" fill="#FEF70F"/>
<path d="M36.0846 28.1714C35.0551 27.3993 34.6691 26.8662 34.9816 26.6089C35.3493 26.3331 36.9669 25.8368 36.8382 26.0574C36.7463 26.1861 36.9118 26.2228 37.3346 26.1309C37.9412 26.0206 37.9779 26.0574 38.1985 26.7559C38.511 27.7486 38.4743 27.914 37.9963 28.3736C37.4265 28.9067 37.0037 28.8699 36.0846 28.1714Z" fill="#FEF70F"/>
<path d="M41.1581 25.892C40.9375 25.6346 40.9375 25.6162 41.1581 25.7265C41.3235 25.8368 41.3051 25.7449 41.1029 25.414C40.9191 25.1567 40.5515 24.8625 40.2574 24.7339C39.1728 24.2927 39.1544 24.1824 39.3566 21.0574C39.4669 19.4949 39.4853 17.2523 39.4301 16.0942C39.3199 14.0537 39.5221 12.3809 39.9081 12.142C40.1103 11.9949 43.3824 13.0795 44.9449 13.7964C47.9596 15.175 51.3971 17.675 53.8603 20.267C54.761 21.2228 55.5147 22.0868 55.5147 22.142C55.5147 22.3258 55.3309 22.3442 53.4926 22.4177C51.6912 22.4912 51.3051 22.3809 50.2574 21.4986C49.8162 21.1493 49.2647 20.8736 49.0074 20.8736C48.75 20.8736 48.1801 20.7449 47.7574 20.5978C47.0588 20.3772 46.8566 20.3772 46.2316 20.5978C45.8272 20.7449 45.3125 20.8552 45.0735 20.8736C44.8529 20.8736 44.614 21.0206 44.5588 21.2045C44.2831 22.05 43.8051 23.0243 43.4191 23.4839C43.1801 23.7596 43.0147 24.1089 43.0699 24.2192C43.1066 24.3478 42.9044 24.6052 42.6103 24.7706C42.3346 24.9545 42.0956 25.2302 42.0956 25.3956C42.0956 25.653 41.6912 26.2045 41.489 26.2045C41.4338 26.2045 41.2868 26.0574 41.1581 25.892Z" fill="#FEF70F"/>
<path d="M24.5588 15.0648C24.4118 14.6971 24.4118 13.925 24.5588 13.392C24.6507 13.0611 24.8162 12.9692 25.2941 12.9692C26.011 12.9692 26.011 12.9875 25.625 13.7412C25.4412 14.0721 25.3676 14.5133 25.4412 14.8258C25.5331 15.2853 25.4963 15.3589 25.1103 15.3589C24.8713 15.3589 24.614 15.2302 24.5588 15.0648Z" fill="#FEF70F"/>
<path d="M48.2537 49.2743C48.1618 49.2375 45.4228 49.164 42.1875 49.1089C38.9522 49.0537 36.1029 48.9802 35.8456 48.9434C35.5882 48.8883 35.2757 48.8515 35.1287 48.8331C34.9265 48.8148 34.9265 48.7596 35.1287 48.5023C35.3493 48.2265 35.3493 48.2081 35.0184 48.3368C34.4853 48.539 32.886 48.6309 32.9963 48.4471C33.0515 48.3736 33.6397 48.2081 34.3382 48.0978C38.1985 47.4912 38.6397 47.3993 39.3199 47.1787C39.6507 47.0684 40.9007 46.8662 42.0772 46.7008C43.2537 46.5537 44.7978 46.2964 45.5147 46.1309C46.3419 45.9287 47.0956 45.8736 47.6287 45.9471C48.0698 46.0206 51.9485 46.1493 56.25 46.2228C64.6691 46.3883 66.5441 46.4986 66.5441 46.8846C66.5441 47.1236 66.0662 47.2706 63.6029 47.8221C62.9412 47.9692 61.5441 48.3 60.4779 48.5758C58.6397 49.0353 58.4191 49.0353 55.6985 48.9067C54.136 48.8331 52.5184 48.778 52.1324 48.778C51.011 48.778 49.7978 48.9986 49.9081 49.1824C49.9632 49.2559 49.8346 49.2927 49.6324 49.2375C49.4301 49.1824 49.2279 49.0721 49.1728 48.9986C49.1177 48.9067 48.9154 48.8883 48.7132 48.9434C48.511 48.9986 48.4007 49.1089 48.4559 49.2008C48.5478 49.3662 48.5478 49.3846 48.2537 49.2743Z" fill="#72CAE6"/>
<path d="M72.7941 45.6162C72.7941 45.3589 72.8493 45.1199 72.9412 45.0831C73.125 44.9545 75 45.6898 75 45.892C75 45.9839 74.5037 46.0574 73.8971 46.0574C72.8493 46.0574 72.7941 46.039 72.7941 45.6162Z" fill="#72CAE6"/>
<path d="M17.5 38.7045C16.875 38.6125 15.9007 38.3368 15.3309 38.0795C14.7794 37.8221 14.1912 37.675 14.0441 37.7302C13.8235 37.8037 13.8051 37.8773 13.989 37.9875C14.4669 38.2817 11.3051 38.0243 10.7169 37.7118C10.386 37.5464 9.96323 37.4177 9.76103 37.4177C9.55882 37.4177 9.35662 37.3442 9.28309 37.2523C9.15441 37.0317 8.10662 36.4986 7.8125 36.4986C7.68382 36.4986 7.3897 36.2964 7.15073 36.0574C6.91176 35.8184 6.63603 35.653 6.50735 35.7081C6.39706 35.7449 6.25 35.5795 6.17647 35.3037C6.01103 34.642 5.34926 33.925 5.01838 34.0537C4.65073 34.2008 4.77941 33.5942 5.625 30.892C6.48897 28.1898 7.70221 25.7633 8.23529 25.6897C8.71323 25.6162 8.93382 26.2596 8.75 27.1787C8.67647 27.4912 8.69485 28.2449 8.75 28.8331C8.86029 29.7339 8.95221 29.9361 9.30147 30.0648C9.52206 30.1567 9.76103 30.3956 9.83456 30.5978C9.8897 30.7817 10.3309 31.2596 10.8088 31.6456C11.2868 32.0317 12.0588 32.675 12.5184 33.0795C13.8235 34.2559 15.7353 35.5795 16.1213 35.5795C16.3051 35.5795 16.8199 35.7081 17.2794 35.8736C19.1176 36.5353 22.9963 36.1309 25.4596 35.0464C26.6912 34.4949 27.7206 33.2817 28.6765 31.2596C29.5956 29.3111 29.761 29.164 31.489 28.8331C32.0772 28.7228 32.0956 28.6861 31.6176 28.0978C31.4154 27.8405 31.25 27.3442 31.25 27.0133C31.25 26.4434 31.2868 26.3883 31.8199 26.3883C32.3162 26.3883 32.3713 26.425 32.1691 26.664C31.9118 26.9765 31.8566 26.9398 34.7426 28.3736C36.8382 29.403 36.9669 29.6971 35.864 30.653C35.2941 31.1493 35.1103 31.425 35.1103 31.8478C35.1103 32.3442 35.0551 32.3993 34.6507 32.3074C34.2831 32.2523 34.2279 32.1787 34.3934 31.9765C34.7059 31.5905 34.5221 30.892 34.0993 30.892C33.8419 30.892 33.6581 31.1125 33.4559 31.6824C33.2904 32.1052 33.1066 32.4177 33.0515 32.3442C32.9779 32.289 32.8309 32.6015 32.7206 33.0243C32.2978 34.55 32.3529 35.3221 32.8493 35.1383C33.0515 35.0464 33.0882 35.1199 32.9779 35.4508C32.7574 36.1677 32.3529 36.4618 30.4596 37.2339C29.4301 37.6567 28.3272 38.1162 28.0147 38.2449C27.6838 38.392 27.114 38.5574 26.7279 38.6125C26.011 38.7228 26.011 38.7228 26.7463 38.3552C27.7022 37.8773 27.1875 37.8773 25.9559 38.3368C25.4228 38.539 24.8529 38.7045 24.6691 38.6861C24.5037 38.6861 24.6507 38.5758 25 38.4287C26.4522 37.8956 26.7096 37.767 26.6176 37.6934C26.5809 37.6567 25.7721 37.8772 24.8162 38.1898C23.3272 38.6677 22.739 38.7596 20.864 38.8148C19.6507 38.8331 18.1434 38.7964 17.5 38.7045Z" fill="#FEEE5D"/>
<path d="M17.7941 36.6824C17.2059 36.5905 16.5625 36.425 16.3787 36.3148C16.1765 36.2228 15.8456 36.1309 15.625 36.1309C15.2022 36.1309 13.3456 34.8625 11.9669 33.6309C11.5074 33.2265 10.7353 32.5831 10.2574 32.1971C9.77941 31.8111 9.33823 31.3331 9.28309 31.1493C9.20956 30.9471 8.97059 30.7081 8.75 30.6162C8.40073 30.4875 8.30882 30.267 8.21691 29.4949C8.14338 28.9618 8.0147 28.4471 7.92279 28.3552C7.79412 28.2265 7.79412 28.0611 7.92279 27.8221C8.0147 27.6383 8.05147 27.4912 8.0147 27.4912C7.95956 27.4912 7.99632 27.2706 8.08823 27.0133C8.19853 26.7375 8.19853 26.5905 8.10662 26.664C8.0147 26.7192 7.88603 26.5905 7.8125 26.3883C7.73897 26.1493 7.86765 25.7081 8.19853 25.1383C9.94485 22.1236 13.0882 18.6861 16.0846 16.5537C18.7316 14.642 23.9522 12.2339 25.386 12.2339C25.8456 12.2339 25.9191 12.3074 25.9191 12.7486C25.9191 13.3552 25.6618 13.7964 25.4044 13.6309C25.3125 13.5758 25.1838 13.7045 25.1287 13.925C25 14.3478 25.4963 15.2486 26.636 16.7008C27.6654 18.0243 28.1801 20.175 27.8125 21.6089C27.6654 22.1603 27.5368 22.289 26.7647 22.528C25.9007 22.8037 25.9007 22.8037 25.0551 22.0133C24.0993 21.0942 21.6728 19.8442 20.4963 19.6603C19.9081 19.5868 19.5037 19.642 18.8419 19.9361C18.364 20.1567 17.7757 20.3221 17.5368 20.3221C16.6176 20.3221 16.1949 20.6346 16.1397 21.3699C16.0846 22.0133 16.0294 22.0868 15.3493 22.2523C14.3934 22.5096 13.2353 23.2265 13.2353 23.5758C13.2353 23.7596 13.3456 23.7964 13.6029 23.7228C13.9706 23.5942 13.989 23.6125 13.6949 24.3111C13.5294 24.6971 13.3272 25.028 13.2353 25.0648C13.125 25.1015 13.0515 25.267 13.0515 25.4508C13.0515 25.6162 12.886 25.8736 12.6838 26.0206C12.4816 26.1677 12.3162 26.3883 12.3162 26.517C12.3162 26.6456 12.2426 26.7559 12.1324 26.7559C11.6912 26.7559 12.1507 30.3773 12.6103 30.5611C12.739 30.6162 13.2537 31.0206 13.7316 31.4802C14.2096 31.9398 14.8713 32.5464 15.1654 32.8221C15.9191 33.5206 18.75 34.4765 20.0919 34.4765C20.9926 34.4765 22.5919 34.017 24.8346 33.0978C25.0184 33.0243 25.1838 32.675 25.2574 32.1787C25.3309 31.7375 25.5147 31.278 25.6434 31.1677C25.7904 31.039 25.9191 30.8184 25.9191 30.6714C25.9191 30.5243 26.0846 30.1934 26.2868 29.9361C26.489 29.6787 26.6544 29.3295 26.6544 29.164C26.6544 28.9986 26.7831 28.7045 26.9301 28.5206C27.0772 28.3184 27.2059 27.9692 27.2059 27.7486C27.2059 27.4361 27.3713 27.289 27.8309 27.1236C28.4375 26.9397 28.4559 26.8846 28.364 26.2596C28.2721 25.6898 28.2904 25.6162 28.6029 25.7265C28.8051 25.7817 29.5772 25.9103 30.3493 26.0023C31.1029 26.1125 31.875 26.2412 32.0404 26.3147C32.3529 26.425 32.3529 26.4618 32.0588 26.7743C31.7831 27.0868 31.8015 27.142 32.4265 27.7853C32.7941 28.153 33.0882 28.4839 33.0882 28.5023C33.0882 28.7045 32.3346 29.2927 31.9853 29.3846C30.6985 29.6787 30.0735 30.0464 29.7426 30.6898C29.5588 31.0574 29.4485 31.3515 29.5037 31.3515C29.5772 31.3515 29.4669 31.5721 29.2647 31.8662C28.9522 32.289 28.5846 33.1898 28.6397 33.3184C28.7316 33.4839 26.5993 35.3221 26.011 35.5978C23.8787 36.5537 20.0919 37.05 17.7941 36.6824ZM8.08823 26.2964C8.08823 26.2412 8.05147 26.2045 7.99632 26.2045C7.94118 26.2045 7.90441 26.2412 7.90441 26.2964C7.90441 26.3515 7.94118 26.3883 7.99632 26.3883C8.05147 26.3883 8.08823 26.3515 8.08823 26.2964Z" fill="#FEF57B"/>
<path d="M62.6838 46.9765C61.5257 46.903 57.8309 46.8478 54.4669 46.8478C51.1213 46.8295 48.2721 46.7559 48.125 46.6824C47.9963 46.6089 47.3162 46.4802 46.5993 46.425C45.3493 46.3147 45.3309 46.2964 45.864 46.0758C46.3971 45.8552 49.0993 45.2853 50.7353 45.0464C51.1948 44.9912 52.3897 44.7523 53.4007 44.55C59.7794 43.2449 66.9853 43.2817 70.5882 44.6787C71.0478 44.8625 71.8382 45.0096 72.3713 45.028C73.4375 45.0464 73.6029 45.1383 73.4559 45.653C73.3272 46.0206 72.6654 46.2412 71.5993 46.2412C71.2684 46.2412 69.9081 46.4434 68.5662 46.7008C67.2243 46.9581 65.8272 47.142 65.4596 47.1236C65.0919 47.1052 63.8419 47.0317 62.6838 46.9765Z" fill="#9BE9F4"/>
<path d="M19.3015 35.0096C17.6471 34.8625 15.3676 34.0721 14.614 33.3736C14.3199 33.0978 13.6765 32.4912 13.1985 32.05C12.7206 31.5905 12.2794 31.278 12.2059 31.3331C12.0772 31.4618 11.6912 30.8368 11.6544 30.4324C11.636 30.2853 11.5441 29.8258 11.4706 29.4214C11.25 28.3184 11.3051 26.3331 11.5441 26.2412C11.6728 26.2045 11.7647 26.0023 11.7647 25.8C11.7647 25.5795 11.8199 25.4508 11.875 25.5243C12.0221 25.6714 12.5 25.1934 12.5 24.9177C12.5 24.8074 12.6287 24.5868 12.7757 24.4398C12.9228 24.2927 12.9779 24.0353 12.9228 23.8699C12.8493 23.6677 12.8676 23.6125 13.0147 23.7045C13.1434 23.778 13.7132 23.7045 14.3015 23.539C15.4963 23.1714 17.4632 22.8405 18.3088 22.8589C18.6213 22.8589 19.4485 23.153 20.1471 23.5022C21.7831 24.3295 23.1801 24.7339 24.3566 24.7339C25.7721 24.7339 28.4743 25.5795 29.0993 26.2045C29.5404 26.664 29.5772 26.7743 29.3934 27.0868C29.2647 27.289 28.8419 27.5464 28.4559 27.6567C27.9228 27.8221 27.7574 27.9692 27.7574 28.2817C27.7574 28.5023 27.6287 28.8699 27.4816 29.0721C27.3346 29.2927 27.261 29.5133 27.3346 29.5684C27.3897 29.642 27.2059 29.9912 26.9301 30.3405C26.6544 30.7081 26.489 31.0574 26.5441 31.1125C26.5993 31.1861 26.4706 31.425 26.25 31.664C25.9926 31.9398 25.9375 32.0868 26.1029 32.0868C26.2868 32.0868 26.25 32.1787 26.0294 32.4361C25.8456 32.6199 25.7904 32.8221 25.9007 32.8405C26.3603 33.0059 25.4412 33.6493 23.8787 34.2192C21.7279 35.028 21.011 35.1567 19.3015 35.0096Z" fill="#FDF79D"/>
<path d="M21.5993 22.8773C20.9926 22.675 19.8346 22.1787 19.0257 21.7743C18.1985 21.3883 17.4449 21.0574 17.3162 21.0574C17.2059 21.0574 16.8382 21.2964 16.489 21.5905C16.1581 21.8846 15.6434 22.1971 15.3309 22.2706C15.0368 22.3442 14.5588 22.5648 14.2463 22.7486C13.511 23.1898 13.0699 23.2081 13.4559 22.767C13.6029 22.5831 13.7868 22.289 13.8419 22.1236C13.9154 21.9398 14.1176 21.7927 14.3199 21.7927C14.5221 21.7927 14.7059 21.6824 14.761 21.5721C14.8162 21.3883 14.9081 21.3883 15.1471 21.5905C15.3125 21.7375 15.5147 21.7927 15.5882 21.7192C15.6618 21.6456 15.5515 21.4618 15.3676 21.3331C15.0368 21.0758 15.0368 21.039 15.3309 20.5978C15.6618 20.0831 16.3051 19.7706 16.9853 19.7706C17.2243 19.7706 17.8125 19.5868 18.2904 19.3846C20.1838 18.539 23.5846 19.5133 25.6434 21.4986C26.1397 21.9581 26.7096 22.3442 26.9118 22.3442C27.1324 22.3625 26.8382 22.528 26.2868 22.7486C24.8346 23.3 22.9779 23.3552 21.5993 22.8773Z" fill="#FDF79D"/>
<path d="M95.9805 32.3354H89.8281L88.75 34.8433C88.4844 35.4604 88.3516 35.9214 88.3516 36.2261C88.3516 36.4683 88.4648 36.6831 88.6914 36.8706C88.9258 37.0503 89.4258 37.1675 90.1914 37.2222V37.6558H85.1875V37.2222C85.8516 37.105 86.2812 36.9526 86.4766 36.7651C86.875 36.3901 87.3164 35.6284 87.8008 34.48L93.3906 21.4019H93.8008L99.332 34.6206C99.7773 35.6831 100.18 36.3745 100.539 36.6948C100.906 37.0073 101.414 37.1831 102.062 37.2222V37.6558H95.793V37.2222C96.4258 37.1909 96.8516 37.0854 97.0703 36.9058C97.2969 36.7261 97.4102 36.5073 97.4102 36.2495C97.4102 35.9058 97.2539 35.3628 96.9414 34.6206L95.9805 32.3354ZM95.6523 31.4683L92.957 25.0464L90.1914 31.4683H95.6523ZM113.793 22.1987V21.7651H119.418V22.1987H118.82C118.195 22.1987 117.715 22.4604 117.379 22.9839C117.215 23.2261 117.133 23.7886 117.133 24.6714V31.1167C117.133 32.7104 116.973 33.9487 116.652 34.8315C116.34 35.7065 115.719 36.4604 114.789 37.0933C113.867 37.7183 112.609 38.0308 111.016 38.0308C109.281 38.0308 107.965 37.73 107.066 37.1284C106.168 36.5269 105.531 35.7183 105.156 34.7026C104.906 34.0073 104.781 32.7026 104.781 30.7886V24.5776C104.781 23.6011 104.645 22.9604 104.371 22.6558C104.105 22.3511 103.672 22.1987 103.07 22.1987H102.473V21.7651H109.34V22.1987H108.73C108.074 22.1987 107.605 22.4058 107.324 22.8198C107.129 23.1011 107.031 23.687 107.031 24.5776V31.5034C107.031 32.1206 107.086 32.8276 107.195 33.6245C107.312 34.4214 107.52 35.0425 107.816 35.4878C108.113 35.9331 108.539 36.3003 109.094 36.5894C109.656 36.8784 110.344 37.0229 111.156 37.0229C112.195 37.0229 113.125 36.7964 113.945 36.3433C114.766 35.8901 115.324 35.312 115.621 34.6089C115.926 33.8979 116.078 32.6987 116.078 31.0112V24.5776C116.078 23.5854 115.969 22.9644 115.75 22.7144C115.445 22.3706 114.992 22.1987 114.391 22.1987H113.793ZM133.574 21.7651L133.75 25.4917H133.305C133.219 24.8354 133.102 24.3667 132.953 24.0854C132.711 23.6323 132.387 23.3003 131.98 23.0894C131.582 22.8706 131.055 22.7612 130.398 22.7612H128.16V34.9019C128.16 35.8784 128.266 36.4878 128.477 36.73C128.773 37.0581 129.23 37.2222 129.848 37.2222H130.398V37.6558H123.66V37.2222H124.223C124.895 37.2222 125.371 37.019 125.652 36.6128C125.824 36.3628 125.91 35.7925 125.91 34.9019V22.7612H124C123.258 22.7612 122.73 22.8159 122.418 22.9253C122.012 23.0737 121.664 23.3589 121.375 23.7808C121.086 24.2026 120.914 24.7729 120.859 25.4917H120.414L120.602 21.7651H133.574ZM150.578 37.6558H146.336L140.957 30.2261C140.559 30.2417 140.234 30.2495 139.984 30.2495C139.883 30.2495 139.773 30.2495 139.656 30.2495C139.539 30.2417 139.418 30.2339 139.293 30.2261V34.8433C139.293 35.8433 139.402 36.4644 139.621 36.7065C139.918 37.0503 140.363 37.2222 140.957 37.2222H141.578V37.6558H134.77V37.2222H135.367C136.039 37.2222 136.52 37.0034 136.809 36.5659C136.973 36.3237 137.055 35.7495 137.055 34.8433V24.5776C137.055 23.5776 136.945 22.9565 136.727 22.7144C136.422 22.3706 135.969 22.1987 135.367 22.1987H134.77V21.7651H140.559C142.246 21.7651 143.488 21.8901 144.285 22.1401C145.09 22.3823 145.77 22.8354 146.324 23.4995C146.887 24.1558 147.168 24.9409 147.168 25.855C147.168 26.8315 146.848 27.6792 146.207 28.3979C145.574 29.1167 144.59 29.6245 143.254 29.9214L146.535 34.48C147.285 35.5269 147.93 36.2222 148.469 36.5659C149.008 36.9097 149.711 37.1284 150.578 37.2222V37.6558ZM139.293 29.4878C139.441 29.4878 139.57 29.4917 139.68 29.4995C139.789 29.4995 139.879 29.4995 139.949 29.4995C141.465 29.4995 142.605 29.1714 143.371 28.5151C144.145 27.8589 144.531 27.0229 144.531 26.0073C144.531 25.0151 144.219 24.2104 143.594 23.5933C142.977 22.9683 142.156 22.6558 141.133 22.6558C140.68 22.6558 140.066 22.73 139.293 22.8784V29.4878ZM155.383 22.6323V28.9136H158.875C159.781 28.9136 160.387 28.7769 160.691 28.5034C161.098 28.144 161.324 27.5112 161.371 26.605H161.805V32.1362H161.371C161.262 31.3628 161.152 30.8667 161.043 30.6479C160.902 30.3745 160.672 30.1597 160.352 30.0034C160.031 29.8472 159.539 29.769 158.875 29.769H155.383V35.0073C155.383 35.7104 155.414 36.1401 155.477 36.2964C155.539 36.4448 155.648 36.5659 155.805 36.6597C155.961 36.7456 156.258 36.7886 156.695 36.7886H159.391C160.289 36.7886 160.941 36.7261 161.348 36.6011C161.754 36.4761 162.145 36.23 162.52 35.8628C163.004 35.3784 163.5 34.6479 164.008 33.6714H164.477L163.105 37.6558H150.859V37.2222H151.422C151.797 37.2222 152.152 37.1323 152.488 36.9526C152.738 36.8276 152.906 36.6401 152.992 36.3901C153.086 36.1401 153.133 35.6284 153.133 34.855V24.5308C153.133 23.5229 153.031 22.9019 152.828 22.6675C152.547 22.355 152.078 22.1987 151.422 22.1987H150.859V21.7651H163.105L163.281 25.2456H162.824C162.66 24.4097 162.477 23.8354 162.273 23.5229C162.078 23.2104 161.785 22.9722 161.395 22.8081C161.082 22.6909 160.531 22.6323 159.742 22.6323H155.383ZM184.48 21.7651L184.656 25.4917H184.211C184.125 24.8354 184.008 24.3667 183.859 24.0854C183.617 23.6323 183.293 23.3003 182.887 23.0894C182.488 22.8706 181.961 22.7612 181.305 22.7612H179.066V34.9019C179.066 35.8784 179.172 36.4878 179.383 36.73C179.68 37.0581 180.137 37.2222 180.754 37.2222H181.305V37.6558H174.566V37.2222H175.129C175.801 37.2222 176.277 37.019 176.559 36.6128C176.73 36.3628 176.816 35.7925 176.816 34.9019V22.7612H174.906C174.164 22.7612 173.637 22.8159 173.324 22.9253C172.918 23.0737 172.57 23.3589 172.281 23.7808C171.992 24.2026 171.82 24.7729 171.766 25.4917H171.32L171.508 21.7651H184.48ZM196.715 22.1987V21.7651H202.34V22.1987H201.742C201.117 22.1987 200.637 22.4604 200.301 22.9839C200.137 23.2261 200.055 23.7886 200.055 24.6714V31.1167C200.055 32.7104 199.895 33.9487 199.574 34.8315C199.262 35.7065 198.641 36.4604 197.711 37.0933C196.789 37.7183 195.531 38.0308 193.938 38.0308C192.203 38.0308 190.887 37.73 189.988 37.1284C189.09 36.5269 188.453 35.7183 188.078 34.7026C187.828 34.0073 187.703 32.7026 187.703 30.7886V24.5776C187.703 23.6011 187.566 22.9604 187.293 22.6558C187.027 22.3511 186.594 22.1987 185.992 22.1987H185.395V21.7651H192.262V22.1987H191.652C190.996 22.1987 190.527 22.4058 190.246 22.8198C190.051 23.1011 189.953 23.687 189.953 24.5776V31.5034C189.953 32.1206 190.008 32.8276 190.117 33.6245C190.234 34.4214 190.441 35.0425 190.738 35.4878C191.035 35.9331 191.461 36.3003 192.016 36.5894C192.578 36.8784 193.266 37.0229 194.078 37.0229C195.117 37.0229 196.047 36.7964 196.867 36.3433C197.688 35.8901 198.246 35.312 198.543 34.6089C198.848 33.8979 199 32.6987 199 31.0112V24.5776C199 23.5854 198.891 22.9644 198.672 22.7144C198.367 22.3706 197.914 22.1987 197.312 22.1987H196.715ZM202.293 21.7651H206.605L216.32 33.6831V24.519C216.32 23.5425 216.211 22.9331 215.992 22.6909C215.703 22.3628 215.246 22.1987 214.621 22.1987H214.07V21.7651H219.602V22.1987H219.039C218.367 22.1987 217.891 22.4019 217.609 22.8081C217.438 23.0581 217.352 23.6284 217.352 24.519V37.9136H216.93L206.453 25.1167V34.9019C206.453 35.8784 206.559 36.4878 206.77 36.73C207.066 37.0581 207.523 37.2222 208.141 37.2222H208.703V37.6558H203.172V37.2222H203.723C204.402 37.2222 204.883 37.019 205.164 36.6128C205.336 36.3628 205.422 35.7925 205.422 34.9019V23.8511C204.961 23.312 204.609 22.9565 204.367 22.7847C204.133 22.6128 203.785 22.4526 203.324 22.3042C203.098 22.2339 202.754 22.1987 202.293 22.1987V21.7651ZM227.359 37.2222V37.6558H220.551V37.2222H221.113C221.77 37.2222 222.246 37.0308 222.543 36.6479C222.73 36.3979 222.824 35.7964 222.824 34.8433V24.5776C222.824 23.7729 222.773 23.2417 222.672 22.9839C222.594 22.7886 222.434 22.6206 222.191 22.48C221.848 22.2925 221.488 22.1987 221.113 22.1987H220.551V21.7651H227.359V22.1987H226.785C226.137 22.1987 225.664 22.3901 225.367 22.7729C225.172 23.0229 225.074 23.6245 225.074 24.5776V34.8433C225.074 35.6479 225.125 36.1792 225.227 36.437C225.305 36.6323 225.469 36.8003 225.719 36.9409C226.055 37.1284 226.41 37.2222 226.785 37.2222H227.359ZM238.949 21.4019V26.8979H238.516C238.375 25.8433 238.121 25.0034 237.754 24.3784C237.395 23.7534 236.879 23.2573 236.207 22.8901C235.535 22.5229 234.84 22.3394 234.121 22.3394C233.309 22.3394 232.637 22.5894 232.105 23.0894C231.574 23.5815 231.309 24.144 231.309 24.7769C231.309 25.2612 231.477 25.7026 231.812 26.1011C232.297 26.687 233.449 27.4683 235.27 28.4448C236.754 29.2417 237.766 29.855 238.305 30.2847C238.852 30.7065 239.27 31.2065 239.559 31.7847C239.855 32.3628 240.004 32.9683 240.004 33.6011C240.004 34.8042 239.535 35.8433 238.598 36.7183C237.668 37.5854 236.469 38.019 235 38.019C234.539 38.019 234.105 37.9839 233.699 37.9136C233.457 37.8745 232.953 37.7339 232.188 37.4917C231.43 37.2417 230.949 37.1167 230.746 37.1167C230.551 37.1167 230.395 37.1753 230.277 37.2925C230.168 37.4097 230.086 37.6519 230.031 38.019H229.598V32.5698H230.031C230.234 33.7104 230.508 34.5659 230.852 35.1362C231.195 35.6987 231.719 36.1675 232.422 36.5425C233.133 36.9175 233.91 37.105 234.754 37.105C235.73 37.105 236.5 36.8472 237.062 36.3315C237.633 35.8159 237.918 35.2065 237.918 34.5034C237.918 34.1128 237.809 33.7183 237.59 33.3198C237.379 32.9214 237.047 32.5503 236.594 32.2065C236.289 31.9722 235.457 31.4761 234.098 30.7183C232.738 29.9526 231.77 29.3433 231.191 28.8901C230.621 28.437 230.188 27.937 229.891 27.3901C229.594 26.8433 229.445 26.2417 229.445 25.5854C229.445 24.4448 229.883 23.4644 230.758 22.644C231.633 21.8159 232.746 21.4019 234.098 21.4019C234.941 21.4019 235.836 21.6089 236.781 22.0229C237.219 22.2183 237.527 22.3159 237.707 22.3159C237.91 22.3159 238.074 22.2573 238.199 22.1401C238.332 22.0151 238.438 21.769 238.516 21.4019H238.949ZM248.711 37.2222V37.6558H241.902V37.2222H242.465C243.121 37.2222 243.598 37.0308 243.895 36.6479C244.082 36.3979 244.176 35.7964 244.176 34.8433V24.5776C244.176 23.7729 244.125 23.2417 244.023 22.9839C243.945 22.7886 243.785 22.6206 243.543 22.48C243.199 22.2925 242.84 22.1987 242.465 22.1987H241.902V21.7651H248.711V22.1987H248.137C247.488 22.1987 247.016 22.3901 246.719 22.7729C246.523 23.0229 246.426 23.6245 246.426 24.5776V34.8433C246.426 35.6479 246.477 36.1792 246.578 36.437C246.656 36.6323 246.82 36.8003 247.07 36.9409C247.406 37.1284 247.762 37.2222 248.137 37.2222H248.711ZM254.312 22.6323V28.9136H257.805C258.711 28.9136 259.316 28.7769 259.621 28.5034C260.027 28.144 260.254 27.5112 260.301 26.605H260.734V32.1362H260.301C260.191 31.3628 260.082 30.8667 259.973 30.6479C259.832 30.3745 259.602 30.1597 259.281 30.0034C258.961 29.8472 258.469 29.769 257.805 29.769H254.312V35.0073C254.312 35.7104 254.344 36.1401 254.406 36.2964C254.469 36.4448 254.578 36.5659 254.734 36.6597C254.891 36.7456 255.188 36.7886 255.625 36.7886H258.32C259.219 36.7886 259.871 36.7261 260.277 36.6011C260.684 36.4761 261.074 36.23 261.449 35.8628C261.934 35.3784 262.43 34.6479 262.938 33.6714H263.406L262.035 37.6558H249.789V37.2222H250.352C250.727 37.2222 251.082 37.1323 251.418 36.9526C251.668 36.8276 251.836 36.6401 251.922 36.3901C252.016 36.1401 252.062 35.6284 252.062 34.855V24.5308C252.062 23.5229 251.961 22.9019 251.758 22.6675C251.477 22.355 251.008 22.1987 250.352 22.1987H249.789V21.7651H262.035L262.211 25.2456H261.754C261.59 24.4097 261.406 23.8354 261.203 23.5229C261.008 23.2104 260.715 22.9722 260.324 22.8081C260.012 22.6909 259.461 22.6323 258.672 22.6323H254.312Z" fill="white"/>
</svg>
